<svg width="120" height="15" viewBox="0 0 120 15" fill="none" xmlns="http://www.w3.org/2000/svg">
<path d="M8.66406 12H6.36719V2.53906H2.99219V12H0.695312V0.625H8.66406V12ZM20.5312 7.33594C20.5312 8.86198 20.1693 10.0469 19.4453 10.8906C18.7266 11.7344 17.7266 12.1562 16.4453 12.1562C15.1693 12.1562 14.1667 11.7396 13.4375 10.9062C12.7083 10.0677 12.3385 8.89583 12.3281 7.39062V5.44531C12.3281 3.88281 12.6901 2.66406 13.4141 1.78906C14.138 0.908854 15.1432 0.46875 16.4297 0.46875C17.6953 0.46875 18.6927 0.901042 19.4219 1.76562C20.151 2.625 20.5208 3.83333 20.5312 5.39062V7.33594ZM18.2266 5.42969C18.2266 4.40365 18.0807 3.64062 17.7891 3.14062C17.4974 2.64062 17.0443 2.39062 16.4297 2.39062C15.8203 2.39062 15.3698 2.63281 15.0781 3.11719C14.7865 3.59635 14.6354 4.32812 14.625 5.3125V7.33594C14.625 8.33073 14.7734 9.0651 15.0703 9.53906C15.3672 10.0078 15.8255 10.2422 16.4453 10.2422C17.0443 10.2422 17.4896 10.013 17.7812 9.55469C18.0729 9.09115 18.2214 8.375 18.2266 7.40625V5.42969ZM33.0234 14.7969H30.9141V12H25.5312V14.7891H23.3594L23.2344 10.0938H23.9922C24.3255 9.78646 24.5885 9.29167 24.7812 8.60938C24.974 7.92708 25.1094 7.03385 25.1875 5.92969L25.5078 0.625H32.0469V10.0938H33.2266L33.0234 14.7969ZM26.4609 10.0938H29.7578V2.53906H27.6953L27.5078 5.67188C27.3776 7.55208 27.0286 9.02604 26.4609 10.0938ZM38.7109 8V12H36.4141V0.625H40.2891C41.4141 0.625 42.3099 0.973958 42.9766 1.67188C43.6484 2.36979 43.9844 3.27604 43.9844 4.39062C43.9844 5.50521 43.6536 6.38542 42.9922 7.03125C42.3307 7.67708 41.4141 8 40.2422 8H38.7109ZM38.7109 6.08594H40.2891C40.7266 6.08594 41.0651 5.94271 41.3047 5.65625C41.5443 5.36979 41.6641 4.95312 41.6641 4.40625C41.6641 3.83854 41.5417 3.38802 41.2969 3.05469C41.0521 2.71615 40.724 2.54427 40.3125 2.53906H38.7109V6.08594ZM55.5312 7.33594C55.5312 8.86198 55.1693 10.0469 54.4453 10.8906C53.7266 11.7344 52.7266 12.1562 51.4453 12.1562C50.1693 12.1562 49.1667 11.7396 48.4375 10.9062C47.7083 10.0677 47.3385 8.89583 47.3281 7.39062V5.44531C47.3281 3.88281 47.6901 2.66406 48.4141 1.78906C49.138 0.908854 50.1432 0.46875 51.4297 0.46875C52.6953 0.46875 53.6927 0.901042 54.4219 1.76562C55.151 2.625 55.5208 3.83333 55.5312 5.39062V7.33594ZM53.2266 5.42969C53.2266 4.40365 53.0807 3.64062 52.7891 3.14062C52.4974 2.64062 52.0443 2.39062 51.4297 2.39062C50.8203 2.39062 50.3698 2.63281 50.0781 3.11719C49.7865 3.59635 49.6354 4.32812 49.625 5.3125V7.33594C49.625 8.33073 49.7734 9.0651 50.0703 9.53906C50.3672 10.0078 50.8255 10.2422 51.4453 10.2422C52.0443 10.2422 52.4896 10.013 52.7812 9.55469C53.0729 9.09115 53.2214 8.375 53.2266 7.40625V5.42969ZM65.5547 2.53906H61.4766V4.71094H62.8359C63.987 4.71094 64.9036 5.03906 65.5859 5.69531C66.2682 6.34635 66.6094 7.21875 66.6094 8.3125C66.6094 9.40104 66.276 10.2839 65.6094 10.9609C64.9427 11.6328 64.0599 11.9792 62.9609 12H59.1719V0.625H65.5547V2.53906ZM61.4766 6.61719V10.0938H62.8672C63.3151 10.0938 63.6667 9.92708 63.9219 9.59375C64.1823 9.25521 64.3125 8.82292 64.3125 8.29688C64.3125 7.80208 64.1849 7.40104 63.9297 7.09375C63.6797 6.78125 63.3307 6.6224 62.8828 6.61719H61.4766ZM77.8906 12H75.6016V7.13281H72.2109V12H69.9141V0.625H72.2109V5.22656H75.6016V0.625H77.8906V12ZM87.6172 7.07812H84.0391V10.0938H88.2734V12H81.7422V0.625H88.2578V2.53906H84.0391V5.22656H87.6172V7.07812ZM97.4766 7.07812H93.8984V10.0938H98.1328V12H91.6016V0.625H98.1172V2.53906H93.8984V5.22656H97.4766V7.07812ZM116.426 8.64C116.64 8.07467 116.901 7.58933 117.21 7.184H108.634V5.872H117.21C116.912 5.46667 116.656 4.98133 116.442 4.416H117.658C118.32 5.19467 119.045 5.78667 119.834 6.192V6.88C119.045 7.264 118.32 7.85067 117.658 8.64H116.426Z" fill="#2B4074"/>
</svg>
